<svg xmlns="http://www.w3.org/2000/svg" width="259.347" height="293"><g transform="translate(-831.653 -637)"><text data-name="لم تقم بإضافة أي عروض" transform="translate(856 920)" fill="#072940" font-size="22" font-family="Tajawal-Bold, Tajawal" font-weight="700" opacity=".22"><tspan x="0" y="0">لم تقم بإضافة أي عروض</tspan></text><path data-name="Path 497" d="M963.114 637.5l-8.352 2.154-102.9 26.537-8.352 2.154a15.814 15.814 0 00-11.351 19.241l36.21 140.448a15.814 15.814 0 0019.241 11.352l.022-.006 119.567-30.836.022-.006a15.814 15.814 0 0011.348-19.24l-36.215-140.446a15.814 15.814 0 00-19.24-11.352z" fill="rgba(10,18,19,0.07)"/><path data-name="Path 498" d="M964.249 641.904l-9.893 2.551-99.823 25.743-9.893 2.551a11.262 11.262 0 00-8.084 13.7l36.218 140.446a11.262 11.262 0 0013.7 8.084l.022-.006 119.566-30.832.022-.006a11.262 11.262 0 008.084-13.7l-36.217-140.447a11.262 11.262 0 00-13.702-8.084z" fill="#fff"/><path data-name="Path 499" d="M956.778 687.383l-60.486 15.6a2.631 2.631 0 01-1.314-5.094l60.485-15.6a2.63 2.63 0 111.314 5.094z" fill="#f2f2f2"/><path data-name="Path 500" d="M969.503 693.27l-70.993 18.308a2.631 2.631 0 01-1.314-5.094l70.993-18.308a2.631 2.631 0 011.314 5.094z" fill="#f2f2f2"/><path data-name="Path 501" d="M966.714 725.91l-60.485 15.6a2.631 2.631 0 01-1.314-5.094l60.485-15.6a2.631 2.631 0 111.314 5.094z" fill="#f2f2f2"/><path data-name="Path 502" d="M979.436 731.798l-70.99 18.308a2.631 2.631 0 01-1.314-5.094l70.993-18.308a2.631 2.631 0 111.314 5.094z" fill="#f2f2f2"/><path data-name="Path 503" d="M976.649 764.437l-60.485 15.6a2.631 2.631 0 01-1.314-5.094l60.485-15.6a2.631 2.631 0 011.314 5.094z" fill="#f2f2f2"/><path data-name="Path 504" d="M989.373 770.324l-70.993 18.308a2.631 2.631 0 11-1.314-5.094l70.993-18.308a2.631 2.631 0 011.314 5.094z" fill="#f2f2f2"/><path data-name="Path 505" d="M885.969 718.975l-21.405 5.52a1.263 1.263 0 01-1.536-.906l-4.914-19.054a1.263 1.263 0 01.906-1.536l21.405-5.52a1.263 1.263 0 011.536.906l4.914 19.054a1.263 1.263 0 01-.906 1.536z" fill="#e6e6e6"/><path data-name="Path 506" d="M895.904 757.502l-21.405 5.52a1.263 1.263 0 01-1.536-.906l-4.914-19.054a1.263 1.263 0 01.906-1.536l21.405-5.52a1.263 1.263 0 011.536.906l4.914 19.054a1.263 1.263 0 01-.906 1.536z" fill="#e6e6e6"/><path data-name="Path 507" d="M905.839 796.028l-21.406 5.52a1.263 1.263 0 01-1.536-.906l-4.914-19.054a1.263 1.263 0 01.906-1.536l21.405-5.52a1.263 1.263 0 011.536.906l4.914 19.054a1.263 1.263 0 01-.905 1.536z" fill="#e6e6e6"/><path data-name="Path 508" d="M1046.535 673.102H923.012a15.814 15.814 0 00-15.8 15.8v145.037a15.814 15.814 0 0015.8 15.8h123.523a15.814 15.814 0 0015.8-15.8V688.898a15.814 15.814 0 00-15.8-15.796z" fill="rgba(10,18,19,0.07)"/><path data-name="Path 509" d="M1046.535 677.649H923.017a11.262 11.262 0 00-11.249 11.249v145.045a11.262 11.262 0 0011.249 11.245h123.518a11.262 11.262 0 0011.249-11.245V688.898a11.262 11.262 0 00-11.249-11.249z" fill="#fff"/><circle data-name="Ellipse 74" cx="28.836" cy="28.836" r="28.836" transform="translate(1030.676 809.711)" fill="#d8b649"/><path data-name="Path 510" d="M1073.303 834.785h-10.03v-10.03a3.761 3.761 0 00-7.522 0v10.03h-10.03a3.761 3.761 0 000 7.522h10.03v10.03a3.761 3.761 0 107.522 0v-10.03h10.03a3.761 3.761 0 100-7.522z" fill="#fff"/><path data-name="Path 511" d="M1027.945 757.349H965.48a2.631 2.631 0 110-5.261h62.465a2.631 2.631 0 010 5.261z" fill="rgba(7,41,64,0.09)"/><path data-name="Path 512" d="M1038.796 766.231H965.48a2.631 2.631 0 110-5.261h73.315a2.631 2.631 0 010 5.261z" fill="rgba(7,41,64,0.09)"/><path data-name="Path 513" d="M1027.945 797.136H965.48a2.631 2.631 0 110-5.261h62.465a2.631 2.631 0 110 5.261z" fill="rgba(7,41,64,0.09)"/><path data-name="Path 514" d="M1038.796 806.014H965.48a2.631 2.631 0 110-5.261h73.315a2.631 2.631 0 010 5.261z" fill="rgba(7,41,64,0.09)"/><path data-name="Path 515" d="M951.488 770.257h-22.105a1.263 1.263 0 01-1.261-1.261v-19.677a1.263 1.263 0 011.261-1.261h22.106a1.263 1.263 0 011.261 1.261v19.677a1.263 1.263 0 01-1.262 1.261z" fill="rgba(7,41,64,0.09)"/><path data-name="Path 516" d="M951.488 810.044h-22.105a1.263 1.263 0 01-1.261-1.261v-19.677a1.263 1.263 0 011.261-1.261h22.106a1.263 1.263 0 011.261 1.261v19.677a1.263 1.263 0 01-1.262 1.261z" fill="rgba(7,41,64,0.09)"/><path data-name="Path 517" d="M1028.015 713.058h-46.053a2.631 2.631 0 010-5.261h46.053a2.631 2.631 0 010 5.261z" fill="rgba(7,41,64,0.09)"/><path data-name="Path 518" d="M1038.866 721.936h-56.9a2.631 2.631 0 010-5.261h56.9a2.631 2.631 0 110 5.261z" fill="rgba(7,41,64,0.09)"/><path data-name="Path 519" d="M971.77 732.695h-42.456a1.263 1.263 0 01-1.261-1.261v-33.135a1.263 1.263 0 011.261-1.261h42.456a1.263 1.263 0 011.261 1.261v33.134a1.263 1.263 0 01-1.261 1.262z" fill="#d8b649" opacity=".26"/></g></svg>