<?xml version="1.0"?>
<svg xmlns="http://www.w3.org/2000/svg" xmlns:xlink="http://www.w3.org/1999/xlink" xmlns:svgjs="http://svgjs.com/svgjs" version="1.1" width="512" height="512" x="0" y="0" viewBox="0 0 512 512" style="enable-background:new 0 0 512 512" xml:space="preserve" class=""><g><path xmlns="http://www.w3.org/2000/svg" d="m173 374c14.667-16.667 28.459-44.167 54-71.667 23.922-25.757 35.029-41 51.667-60.666 21.329-25.217 49.9-55.159 70.359-78.167h-27.4c-16.315 12.884-62.712 49.655-73.378 59.5-13 12-88.761 71.1-109.25 88-44.213 36.463-130.956 99.961-131.008 100v93.076h68.01s22.124-30.308 36-47.076c22.418-27.09 38.988-57.987 61-83z" fill="#0a121338" data-original="#000000" style="" class=""/><path xmlns="http://www.w3.org/2000/svg" d="m7.99 281.666v81.334c.052-.032 87.012-52.666 93.677-55.332s65.994-49.334 65.994-49.334 32.006-26.667 46.839-31.334 25.833-22 41.5-32c11.617-7.414 34.391-23.612 45.4-31.5h-38.5c-63.14 22.249-113.7 55.226-129.9 60.833-17.329 5.999-124.958 57.308-125.01 57.333z" fill="#0a121338" data-original="#000000" style="" class=""/><path xmlns="http://www.w3.org/2000/svg" d="m7.99 205 .01 51s101-42 120-48.466 45-21.034 51-23.534c4.29-1.788 35.161-13.8 52.41-20.5h-64.348c-51.09 12.337-159.02 41.486-159.072 41.5z" fill="#0a121338" data-original="#000000" style="" class=""/><path xmlns="http://www.w3.org/2000/svg" d="m8 184.5c20.046-6.167 64.437-14.97 96.945-21h-96.955z" fill="#0a121338" data-original="#000000" style="" class=""/><path xmlns="http://www.w3.org/2000/svg" d="m296.675 451.8c4.168-34.086 24.6-116.135 36.575-142.8 13.96-31.078 21.674-56.343 29.533-77.009 10.773-28.325 13.978-46.7 21.187-68.491h-20.117c-16.186 32.138-47.553 53.479-53.853 67.5-6.591 14.667-51 60.25-59 77-7 14.649-43.69 61.114-48.352 68.5-23 36.43-44.607 68.715-51.648 81.167-17.055 30.16-26.623 46.408-26.623 46.408h156.623s5.037-21.673 11.938-38.324a53.369 53.369 0 0 0 3.737-13.951z" fill="#0a121338" data-original="#000000" style="" class=""/><path xmlns="http://www.w3.org/2000/svg" d="m499.333 146.076c-8.677-3.956-18.779-7.584-48.333-24.406-21.67-12.34-52.68-4.16-64.17 3.5-9.36 6.23-39.16 14.5-65.16 13.16-12.17-.62-31.34-9.55-45.34-10.33s-49.8 13.25-58.45 12.79a241.051 241.051 0 0 1 -50.22-8.42c-24.27-7.01-67.17-24.7-103.66-11.93a493.81 493.81 0 0 0 -51.548 21.826 7.99 7.99 0 0 0 -4.462 7.175v5.059h496.01v-1.15a7.989 7.989 0 0 0 -4.667-7.274z" fill="#0a121338" data-original="#000000" style="" class=""/><path xmlns="http://www.w3.org/2000/svg" d="m503.984 163.5h-31.432c11.805 12.649 23.3 32.467 31.448 40.613z" fill="#0a121338" data-original="#000000" style="" class=""/><path xmlns="http://www.w3.org/2000/svg" d="m441 317c-5.1-23.433-7.3-56.362-16.5-94.5-1.783-7.39-5.5-45.762-6.746-59h-20.216c-8.67 32.172-14.6 53.878-18.038 68-9.492 39.021-41.94 122.209-46.25 187.128-2.812 42.357-12.25 85.447-12.25 85.447h152c-4.939-21.255-15-51.075-16.486-90.945-1.951-52.297-10.334-72.344-15.514-96.13z" fill="#0a121338" data-original="#000000" style="" class=""/><path xmlns="http://www.w3.org/2000/svg" d="m454.027 163.5h-22.827c3.284 17.126 14.995 78.055 18.137 92.567 3.667 16.933 16 76.8 20.667 94.266s12.663 58.667 17.329 71.334 16.667 49.166 16.667 49.166v-226.227a175.773 175.773 0 0 1 -13.3-17.92c-19.275-30.245-19.658-41.739-36.673-63.186z" fill="#0a121338" data-original="#000000" style="" class=""/></g></svg>
