<?xml version="1.0"?>
<svg xmlns="http://www.w3.org/2000/svg" xmlns:xlink="http://www.w3.org/1999/xlink" xmlns:svgjs="http://svgjs.com/svgjs" version="1.1" width="512" height="512" x="0" y="0" viewBox="0 0 468 468" style="enable-background:new 0 0 512 512" xml:space="preserve" class=""><g><g xmlns="http://www.w3.org/2000/svg" id="XMLID_6251_"><path d="m0 205.975 137.784 66.342 37.326-53.801-135.268-56.315z" fill="#0a121338" data-original="#000000" style="" class=""/><path d="m52.397 383.981 131.726 54.661v-173.136l-26.56 38.283c-4.792 6.907-13.893 9.304-21.467 5.658l-83.699-40.302z" fill="#0a121338" data-original="#000000" style="" class=""/><path d="m294.807 73.518 125.731 49.639 47.462-26.34-129.738-55.524z" fill="#0a121338" data-original="#000000" style="" class=""/><path d="m229.87 219.833 42.239 54.229 164.98-55.252-24.774-55.932z" fill="#0a121338" data-original="#000000" style="" class=""/><path d="m218.316 260.639v180.361l186.36-58.177v-117.108l-133.186 44.605c-6.876 2.306-14.462.019-18.92-5.705z" fill="#0a121338" data-original="#000000" style="" class=""/><path d="m87.142 144.864 114.915 47.84 168.396-52.568-111.443-43.999z" fill="#0a121338" data-original="#000000" style="" class=""/><path d="m11.898 73.636 30.946 48.256 188.957-53.572-29.731-41.32z" fill="#0a121338" data-original="#000000" style="" class=""/></g></g></svg>
